<?xml version="1.0" encoding="UTF-8"?>
<svg width="582px" height="40px" viewBox="0 0 582 40" version="1.1" xmlns="http://www.w3.org/2000/svg" xmlns:xlink="http://www.w3.org/1999/xlink">
    <title>payment-card-logos</title>
    <defs>
        <linearGradient x1="48.618752%" y1="76.002%" x2="52.6405242%" y2="-0.583%" id="linearGradient-1">
            <stop stop-color="#504678" offset="0%"></stop>
            <stop stop-color="#504678" stop-opacity="0.616" offset="30.2%"></stop>
            <stop stop-color="#504678" stop-opacity="0.283" offset="60.8%"></stop>
            <stop stop-color="#504678" stop-opacity="0.076" offset="85.2%"></stop>
            <stop stop-color="#504678" stop-opacity="0" offset="100%"></stop>
        </linearGradient>
        <linearGradient x1="48.6053165%" y1="76.002%" x2="52.6662088%" y2="-0.583%" id="linearGradient-2">
            <stop stop-color="#504678" offset="0%"></stop>
            <stop stop-color="#504678" stop-opacity="0.616" offset="30.2%"></stop>
            <stop stop-color="#504678" stop-opacity="0.283" offset="60.8%"></stop>
            <stop stop-color="#504678" stop-opacity="0.076" offset="85.2%"></stop>
            <stop stop-color="#504678" stop-opacity="0" offset="100%"></stop>
        </linearGradient>
        <linearGradient x1="13.702%" y1="65.8262153%" x2="57.382%" y2="41.5304906%" id="linearGradient-3">
            <stop stop-color="#504678" offset="0%"></stop>
            <stop stop-color="#504678" stop-opacity="0.872" offset="17.9%"></stop>
            <stop stop-color="#504678" stop-opacity="0.536" offset="52.6%"></stop>
            <stop stop-color="#504678" stop-opacity="0" offset="100%"></stop>
        </linearGradient>
        <linearGradient x1="47.724%" y1="35.4444533%" x2="45.261%" y2="19.3712712%" id="linearGradient-4">
            <stop stop-color="#504678" offset="0%"></stop>
            <stop stop-color="#504678" stop-opacity="0.332" offset="64.3%"></stop>
            <stop stop-color="#504678" stop-opacity="0" offset="100%"></stop>
        </linearGradient>
    </defs>
    <g id="Permisision/others/4354" stroke="none" stroke-width="1" fill="none" fill-rule="evenodd">
        <g id="Artboard" transform="translate(-293.000000, -633.000000)">
            <g id="payment-card-logos" transform="translate(293.000000, 633.000000)">
                <g id="viabill" transform="translate(484.000000, 10.000000)" fill="#5A00FF" fill-rule="nonzero">
                    <path d="M16.807765,0.000567189089 C15.8558493,0.000567189089 15.002879,0.607073367 14.6638533,1.52448752 L9.54865336,15.3699939 L4.43009917,1.52333435 C4.13296473,0.730164014 3.44570603,0.16268951 2.63029021,0.0372190303 C1.81487442,-0.0882514491 0.996946708,0.247615499 0.488282266,0.916795136 C-0.0203821777,1.58597477 -0.141404648,2.48535505 0.17134583,3.27211296 L6.37275708,18.6703595 C6.90755879,19.9988594 8.16459072,20.8652292 9.55927508,20.8665671 C10.9562911,20.8665671 12.2156463,19.9983195 12.7497063,18.6669 L18.9287561,3.27211296 C19.2231543,2.54179806 19.143936,1.70802077 18.7176813,1.05054153 C18.2914266,0.39306229 17.5746165,-0.000999736377 16.807765,0.000567189089 Z M26.4891892,0.000575453729 C25.6635015,-4.46069353e-05 24.9183225,0.511120332 24.59964,1.29673692 L17.8408677,17.9357918 C17.420864,19.0077893 17.9144109,20.2288635 18.948327,20.6757335 C19.9822429,21.1226036 21.1723793,20.6292361 21.618848,19.568677 L28.3776205,2.9296222 C28.6425239,2.27758067 28.5736407,1.53209409 28.1940923,0.943396722 C27.8145439,0.354699348 27.1746456,0.000832296071 26.4891892,0.000575453729 L26.4891892,0.000575453729 Z M65.2864434,0.000576511076 C64.3886923,0.000944413893 63.5793872,0.558552056 63.2353322,1.41378343 C63.1239502,1.69169664 63.0665874,1.98947055 63.0665026,2.29019078 L63.0665026,18.57407 C63.0665026,19.8389074 64.0606543,20.8642607 65.2870025,20.8642607 C66.5133507,20.8642607 67.5075026,19.8389074 67.5075026,18.57407 L67.5075026,2.29134395 C67.5076507,1.68374779 67.2736947,1.10099324 66.8571331,0.67135786 C66.4405716,0.241722477 65.8755503,0.000576511076 65.2864434,0.000576511076 L65.2864434,0.000576511076 Z M81.0289605,16.5525672 L75.760584,16.5525672 L75.760584,2.30633513 C75.760584,1.03258141 74.7594243,0 73.5244311,0 C72.289438,0 71.2882775,1.03258141 71.2882775,2.30633513 L71.2882775,18.6634405 C71.2879813,19.2241372 71.5038078,19.7619573 71.8882157,20.1584298 C72.2726236,20.5549024 72.7940776,20.7775027 73.3377123,20.7771972 L81.0289605,20.7771972 C82.1600598,20.7771972 83.0769971,19.831481 83.0769971,18.6648819 C83.0769971,17.4982826 82.1600598,16.5525672 81.0289605,16.5525672 L81.0289605,16.5525672 Z M95.9552816,16.5525672 L90.6874643,16.5525672 L90.6874643,2.30633513 C90.6874643,1.03258141 89.6863045,0 88.4513112,0 C87.2163181,0 86.2151583,1.03258141 86.2151583,2.30633513 L86.2151583,18.6634405 C86.2157752,19.830572 87.1329768,20.7765603 88.2645924,20.7771966 L95.9524865,20.7771966 C96.9288314,20.776428 97.769015,20.0652142 97.9601524,19.0777112 C98.1512898,18.0902082 97.6402748,17.1007872 96.7390533,16.7134341 C96.4906001,16.6071568 96.2242554,16.5524904 95.9552816,16.5525672 L95.9552816,16.5525672 Z M39.8479672,2.22849632 C39.4514175,1.24520593 38.648987,0.49657912 37.6607503,0.18793457 C36.6725138,-0.12070998 35.6022129,0.0430281805 34.7433889,0.634242159 C34.175638,1.02578467 33.7332327,1.58220195 33.472136,2.23310898 L27.2975586,17.6278959 C27.0033139,18.3578331 27.0822907,19.1911532 27.5080141,19.8485062 C27.9337375,20.505859 28.6498579,20.9002361 29.4163136,20.8994348 C30.3684336,20.8994348 31.2216857,20.2931325 31.5607843,19.3755214 L36.6759841,5.53059162 L41.7945384,19.3755214 C42.0916728,20.1686917 42.7789316,20.7361662 43.5943473,20.8616366 C44.4097631,20.9871071 45.2276908,20.6512402 45.7363553,19.9820607 C46.2450197,19.312881 46.3660423,18.4135007 46.0532917,17.6267428 L39.8474082,2.22849632 L39.8479672,2.22849632 Z M59.9834067,14.2272048 C59.9352545,11.9747777 58.6108152,9.96085938 56.5995482,9.08177114 C57.5590493,8.21650181 58.0923683,6.95348557 58.0530477,5.63956597 C58.0530477,1.78164389 54.8883321,0.00115316756 51.0611562,0.00115316756 L45.7687413,0.00115316756 C45.0669422,-0.0111269662 44.4132975,0.367999013 44.058916,0.992883335 C43.7045343,1.61776766 43.7045343,2.39121937 44.058916,3.01610369 C44.4132975,3.64098802 45.0669422,4.02011399 45.7687413,4.00783386 L51.0611562,4.00783386 C52.7589555,4.00783386 53.6215515,4.89865581 53.6215515,6.11524758 C53.6215515,7.33183937 52.7589555,8.07563244 51.0035755,8.07563244 L48.8585457,8.07563244 C48.1796343,8.07232762 47.5522537,8.4485764 47.2192111,9.05876395 C46.8861686,9.66895151 46.8997242,10.4173288 47.2546317,11.0142608 C47.6095392,11.6111929 48.2501074,11.9630106 48.9284255,11.9335545 L52.9959877,11.9335545 C54.0637508,11.9335545 55.660923,12.5251295 55.660923,14.5281815 C55.660923,16.4626201 53.3834012,16.9498334 52.225633,16.9821222 C51.2255959,16.9446567 50.370151,17.7166989 50.2734522,18.7439726 C50.1767533,19.7712462 50.8722325,20.698587 51.860581,20.8602246 C52.2888043,20.9426761 52.722618,20.9882262 53.1575497,20.996875 C54.4677302,21.0361528 55.763313,20.7045343 56.903665,20.0380161 C58.905114,18.8495661 60.0939938,16.6064052 59.9834067,14.2272048 L59.9834067,14.2272048 Z" id="Shape"></path>
                </g>
                <g id="mobile-pay" transform="translate(418.000000, 0.000000)" fill-rule="nonzero">
                    <g id="Group" transform="translate(12.000771, 0.000000)">
                        <path d="M9.72267136,25.4200206 C8.83907607,25.4200206 8.04238277,24.896503 7.70384282,24.0932929 L0.166658255,6.18689027 C-0.294467644,5.0912531 0.234143002,3.83517401 1.34739771,3.38122953 L9.24183741,0.163546134 C9.77641018,-0.0544681453 10.3771006,-0.0545171661 10.9117101,0.163409859 C11.4463197,0.381336886 11.8710361,0.799380472 12.0923889,1.32553855 L19.6295734,19.2326782 C20.0899507,20.3280101 19.5614685,21.5832891 18.4488339,22.0372334 L10.5543943,25.2563909 C10.2907741,25.3641947 10.0081451,25.4200206 9.72267136,25.4200206 Z M10.0769306,1.15527515 C9.94463274,1.15527515 9.81368024,1.18141398 9.69158941,1.231562 L1.79677523,4.44924541 C1.54999491,4.54984277 1.35393939,4.74281145 1.2517523,4.98568715 C1.14956522,5.2285628 1.14962014,5.50144333 1.25190498,5.74427913 L8.78908955,23.6517873 C9.00244104,24.1570505 9.59106861,24.3970717 10.1050167,24.188375 L17.9994565,20.9684805 L17.9994565,20.9684805 C18.2462368,20.867883 18.4422923,20.6749144 18.5444794,20.4320387 C18.6466664,20.189163 18.6466115,19.9162825 18.5443267,19.6734467 L11.0071421,1.76778115 C10.8511263,1.39754661 10.4842054,1.15594428 10.0769306,1.15527515 Z" id="Shape" fill="#5A78FF"></path>
                        <polygon id="Rectangle" fill="url(#linearGradient-1)" opacity="0.7" style="mix-blend-mode: multiply;" transform="translate(13.539558, 6.272688) rotate(-22.500000) translate(-13.539558, -6.272688) " points="12.9316619 2.42313328 14.1036782 2.42972773 14.1474533 10.1222432 12.9754371 10.1156487"></polygon>
                        <polygon id="Rectangle" fill="url(#linearGradient-2)" opacity="0.7" style="mix-blend-mode: multiply;" transform="translate(16.896437, 14.250148) rotate(157.500000) translate(-16.896437, -14.250148) " points="16.2856533 9.89302932 17.4576697 9.89962375 17.5072215 18.6072675 16.3352052 18.6006731"></polygon>
                        <path d="M16.6722949,13.1643728 C14.4145472,14.0857115 12.5294085,15.3556848 11.2951182,16.8865813 L8.11277637,9.3227588 C9.56438053,7.66303531 11.4120607,6.38402748 13.489953,5.60055028 C15.7477005,4.67921155 18.0286659,4.2332836 19.9666066,4.49310113 L23.1496974,12.0565551 C20.9306507,11.8920883 18.7048477,12.2727631 16.6722949,13.1643728 Z" id="Path" fill="#5A78FF"></path>
                        <g id="Path" opacity="0.4" style="mix-blend-mode: multiply;" transform="translate(8.112776, 4.419858)">
                            <path d="M8.55951843,8.74451529 C6.30177085,9.66585403 4.41663213,10.9358273 3.18234186,12.4667238 L-1.24727319e-16,4.90290128 C1.45160416,3.24317781 3.29928435,1.96416998 5.37717659,1.18069279 C7.63492418,0.259354048 9.9158896,-0.186573902 11.8538302,0.0732436227 L15.036921,7.63669758 C12.8178743,7.47223084 10.5920713,7.85290564 8.55951843,8.74451529 Z" fill="url(#linearGradient-3)" opacity="0.9"></path>
                            <path d="M8.55951843,8.74451529 C6.30177085,9.66585403 4.41663213,10.9358273 3.18234186,12.4667238 L-1.24727319e-16,4.90290128 C1.45160416,3.24317781 3.29928435,1.96416998 5.37717659,1.18069279 C7.63492418,0.259354048 9.9158896,-0.186573902 11.8538302,0.0732436227 L15.036921,7.63669758 C12.8178743,7.47223084 10.5920713,7.85290564 8.55951843,8.74451529 Z" fill="url(#linearGradient-4)" opacity="0.7"></path>
                        </g>
                        <path d="M17.7092334,15.4702994 C15.2653687,15.4702994 13.0282176,15.9350226 11.2943693,16.883633 L11.2943693,9.23578441 C13.2807913,8.24930673 15.4850265,7.76366595 17.7092334,7.8224508 C20.1530982,7.8224508 22.4340637,8.26837875 24.1237232,9.2376271 L24.1237232,16.8854757 C22.1376654,15.8981865 19.9334973,15.411899 17.7092334,15.4702994 Z" id="Path" fill="#5A78FF"></path>
                    </g>
                    <path d="M0.0166355663,37.9174278 L1.99389669,31.7665704 C2.01464248,31.6813705 2.0886636,31.6189312 2.17739251,31.6117856 L3.16976787,31.6117856 C3.25872738,31.6240662 3.33358293,31.6835664 3.36449814,31.7665704 L4.90361618,35.6472493 C4.93357467,35.7246416 5.01221574,35.7320123 5.03842942,35.6472493 L6.56631303,31.7665704 C6.59722821,31.6835664 6.67208376,31.6240662 6.76104328,31.6117856 L7.75341866,31.6117856 C7.84214757,31.6189312 7.91616866,31.6813705 7.93691448,31.7665704 L9.87298266,37.9174278 C9.89573845,37.9647814 9.8912509,38.0204622 9.86119443,38.0636933 C9.83113797,38.1069243 9.78002768,38.131212 9.72693496,38.1274931 L8.55855339,38.1274931 C8.47491951,38.1312355 8.40066085,38.0752598 8.38254719,37.9948203 L7.13177975,33.9998955 C7.11305568,33.922503 7.02318018,33.922503 6.99696648,33.9998955 L5.49904139,37.9653374 C5.4735403,38.0608059 5.38589154,38.1273902 5.28558707,38.1274931 L4.60777597,38.1274931 C4.50834429,38.1294665 4.42168142,38.0612371 4.40181126,37.9653374 L2.87392768,33.9998955 C2.84396917,33.922503 2.76532811,33.922503 2.74660405,33.9998955 L1.46213328,37.9948203 C1.44218727,38.0772683 1.36454764,38.133404 1.27863745,38.1274931 L0.155193637,38.1274931 C0.102570888,38.1307424 0.0522539631,38.1058262 0.0235460563,38.0623025 C-0.00516184719,38.0187792 -0.00780310105,37.9634067 0.0166355663,37.9174278 L0.0166355663,37.9174278 Z M10.2624432,35.7246416 C10.2411438,34.6767901 10.8661385,33.7204014 11.8437974,33.3047981 C12.8214563,32.8891949 13.9574434,33.0969893 14.7180588,33.8305573 C15.4786741,34.5641253 15.7127249,35.6776504 15.3102513,36.6479854 C14.9077777,37.6183208 13.9487821,38.2525854 12.8838121,38.2527952 C12.1907394,38.2760464 11.5182407,38.0188853 11.0229516,37.5412088 C10.5276627,37.0635321 10.2528216,36.4070408 10.2624432,35.7246416 Z M14.1570484,35.7246416 C14.1162381,35.0350259 13.5219335,34.5044979 12.8205433,34.5315609 C12.1191531,34.5586238 11.5688803,35.133315 11.5830592,35.8239584 C11.5972381,36.5146017 12.1706491,37.0669504 12.8725777,37.0661128 C13.2238882,37.0564851 13.556843,36.9095821 13.7978656,36.657864 C14.0388881,36.4061461 14.1681361,36.0703361 14.1570484,35.7246416 L14.1570484,35.7246416 Z M17.8194752,37.7368454 C17.7221101,37.6594529 17.6359794,37.6889358 17.6359794,37.8216086 L17.6359794,37.9579667 C17.6360614,38.0548909 17.5583789,38.1345929 17.4599733,38.1385491 L16.5462389,38.1385491 C16.4465304,38.1347709 16.3665822,38.056092 16.362743,37.9579667 L16.362743,31.7960533 C16.3665822,31.697928 16.4465304,31.6192491 16.5462389,31.6154709 L17.5086558,31.6154709 C17.6070614,31.6194269 17.684744,31.6991293 17.6846619,31.7960533 L17.6846619,33.5355408 C17.6846619,33.6608429 17.7707926,33.6976965 17.9093507,33.6018773 C18.2779328,33.3301579 18.7258056,33.1828065 19.1863318,33.1817467 C20.5194853,33.1817467 21.541819,34.2873533 21.541819,35.7099003 C21.5732842,36.3601742 21.3365238,36.9953875 20.8852614,37.4714048 C20.4339989,37.9474219 19.806496,38.2238821 19.1451389,38.2380537 C18.6556926,38.2369134 18.1837997,38.0585 17.8194752,37.7368454 L17.8194752,37.7368454 Z M20.2161554,35.7246416 C20.2530117,35.2499886 20.0165712,34.7950208 19.6039434,34.5465997 C19.1913155,34.2981785 18.6720538,34.2981785 18.2594259,34.5465997 C17.8467979,34.7950208 17.6103576,35.2499886 17.6472139,35.7246416 C17.6340835,36.0685733 17.7619714,36.4032657 18.0021229,36.6534659 C18.2422744,36.9036659 18.5745338,37.0483744 18.924195,37.0550549 C19.6528768,37.0369553 20.2291619,36.4417928 20.2124106,35.7246416 L20.2161554,35.7246416 Z M22.3469538,32.0613989 C22.3469538,31.6543257 22.6822758,31.3243278 23.0959163,31.3243278 C23.509557,31.3243278 23.8448789,31.6543257 23.8448789,32.0613989 C23.8448789,32.4684718 23.509557,32.7984699 23.0959163,32.7984699 C22.6822758,32.7984699 22.3469538,32.4684718 22.3469538,32.0613989 Z M22.4143603,37.9579667 L22.4143603,33.4986873 C22.4142784,33.4017633 22.491961,33.3220609 22.5903667,33.3181049 L23.5527835,33.3181049 C23.652492,33.321883 23.7324402,33.4005619 23.7362794,33.4986873 L23.7362794,37.9579667 C23.7324402,38.056092 23.652492,38.1347709 23.5527835,38.1385491 L22.5903667,38.1385491 C22.491961,38.1345929 22.4142784,38.0548909 22.4143603,37.9579667 Z M24.822275,36.4838248 L24.822275,31.7960533 C24.822193,31.6991293 24.8998755,31.6194269 24.9982813,31.6154709 L25.9606981,31.6154709 C26.0604066,31.6192491 26.1403547,31.697928 26.1441939,31.7960533 L26.1441939,36.5280491 C26.1441939,36.8339334 26.2790072,37.036628 26.6197851,37.036628 C26.721127,37.036628 26.803281,37.1174773 26.803281,37.2172104 L26.803281,38.002191 C26.7992611,38.0990344 26.7182728,38.1754833 26.6197851,38.1754028 C25.3390592,38.1754028 24.822275,37.762643 24.822275,36.4838248 Z M27.162783,35.7467537 C27.1271109,34.8345104 27.6013,33.9761293 28.3986534,33.509571 C29.1960069,33.0430128 30.1888011,33.0430128 30.9861546,33.509571 C31.783508,33.9761293 32.2576971,34.8345104 32.222025,35.7467537 C32.222025,35.9199654 32.1733424,36.0636944 31.9973362,36.0636944 L28.6494736,36.0636944 C28.5633429,36.0636944 28.5333845,36.111604 28.5408741,36.1889963 C28.6238269,36.7617408 29.141421,37.1747049 29.7279797,37.1361326 C30.0834515,37.1413193 30.422688,36.9899379 30.6529485,36.7233728 C30.7243805,36.6246088 30.8405989,36.5667331 30.9637678,36.568588 L31.8475437,36.568588 C32.0048258,36.568588 32.0722325,36.6754632 32.0123155,36.8265629 C31.4873083,37.8799213 30.2940867,38.4384817 29.1324392,38.1746656 C27.9707918,37.9108494 27.1469445,36.8942019 27.1440589,35.7209563 L27.162783,35.7467537 Z M30.7166102,35.3045112 C30.784017,35.3045112 30.8139754,35.2750283 30.802741,35.1976358 C30.7007005,34.6686736 30.2263094,34.2889616 29.6792971,34.2984093 C29.1443016,34.2979048 28.67918,34.6595168 28.5558533,35.1718384 C28.5371293,35.2381749 28.5558533,35.3045112 28.6344944,35.3045112 L30.7166102,35.3045112 Z M33.0309044,37.9579667 L33.0309044,31.7960533 C33.0308224,31.6991293 33.1085051,31.6194269 33.2069107,31.6154709 L36.2739123,31.6154709 C37.6744723,31.6154709 38.6293995,32.4188782 38.6293995,33.7714035 C38.6293995,35.1239288 37.5471486,35.956819 36.2065058,35.956819 L34.581257,35.956819 C34.5318194,35.9517523 34.4827749,35.9694382 34.4483678,36.0047398 C34.4139608,36.0400414 34.3980478,36.0890019 34.4052507,36.1374014 L34.4052507,37.9579667 C34.4014117,38.056092 34.3214634,38.1347709 34.221755,38.1385491 L33.2106555,38.1385491 C33.110779,38.1365429 33.0309044,38.0562781 33.0309044,37.9579667 Z M36.2065058,34.8548979 C36.4885789,34.8510462 36.7573606,34.7362891 36.9529291,34.5362104 C37.1484976,34.3361317 37.2545934,34.0673654 37.2475637,33.7898304 C37.2593389,33.5147193 37.1534422,33.2473392 36.9555958,33.0526337 C36.7577491,32.8579285 36.4860552,32.7537134 36.2065058,32.7653016 L34.5700226,32.7653016 C34.4539333,32.7653016 34.4052507,32.8242673 34.4052507,32.9385133 L34.4052507,34.6816862 C34.4052507,34.7959321 34.4539333,34.8548979 34.5700226,34.8548979 L36.2065058,34.8548979 Z M39.0862667,35.7246416 C39.061017,35.0728678 39.3024154,34.4383523 39.7564133,33.9631622 C40.2104112,33.4879721 40.8390832,33.2118029 41.5016709,33.1964881 C41.9798299,33.1990537 42.4405835,33.3733521 42.7973762,33.6866403 C42.8835067,33.7640328 42.980872,33.7529768 42.980872,33.6387307 L42.980872,33.4950019 C42.980872,33.3993398 43.0596725,33.3217902 43.1568781,33.3217902 L44.0706125,33.3217902 C44.1703206,33.3255685 44.2502691,33.4042473 44.2541083,33.5023726 L44.2541083,36.6754632 C44.2541083,36.9150113 44.3402389,37.0218865 44.5087555,37.0439987 C44.5961624,37.0457205 44.6677165,37.1129374 44.6735272,37.1987837 L44.6735272,38.0316739 C44.6735272,38.1212299 44.5997563,38.1938294 44.5087555,38.1938294 C43.8646477,38.1938294 43.4864216,38.013247 43.2729674,37.6483969 C43.2130502,37.5525777 43.1456437,37.5341509 43.0482786,37.6299702 C42.6369248,38.0467016 42.0695152,38.2785912 41.4792021,38.2712219 C40.8164826,38.2522033 40.1894128,37.9715579 39.7392733,37.492516 C39.2891341,37.0134744 39.0537906,36.3763331 39.0862667,35.7246416 L39.0862667,35.7246416 Z M42.980872,35.7246416 C43.0176771,35.2513387 42.7819392,34.7976401 42.370491,34.5499086 C41.9590429,34.3021771 41.4412491,34.3021771 41.029801,34.5499086 C40.6183526,34.7976401 40.3826149,35.2513387 40.41942,35.7246416 C40.3826149,36.1979445 40.6183526,36.6516432 41.029801,36.8993747 C41.4412491,37.1471061 41.9590429,37.1471061 42.370491,36.8993747 C42.7819392,36.6516432 43.0176771,36.1979445 42.980872,35.7246416 L42.980872,35.7246416 Z M45.1416288,39.8006443 L45.1416288,39.0230344 C45.145649,38.926191 45.2266368,38.8497419 45.3251246,38.8498227 C45.952024,38.897352 46.5306242,38.5167278 46.7256846,37.928484 C46.7585795,37.8051992 46.7452866,37.6743813 46.6882365,37.5599485 L44.898216,33.5723944 C44.8672805,33.5181742 44.8682515,33.4517952 44.9007603,33.3984739 C44.9332694,33.3451526 44.9923269,33.3130721 45.0554982,33.3143403 L46.017915,33.3143403 C46.1152802,33.3143403 46.1751971,33.391812 46.2126453,33.4876312 L47.3360891,36.0378968 C47.4147302,36.2405913 47.5420538,36.2295353 47.6281845,36.0378968 L48.699201,33.4802605 C48.7366491,33.3844413 48.7853317,33.3254755 48.8826968,33.3254755 L49.8226448,33.3254755 C49.8803014,33.3224958 49.9354944,33.3487718 49.968909,33.3951083 C50.0023235,33.4414449 50.0093072,33.5013909 49.9874165,33.5539677 L48.1487134,37.8547768 C47.478392,39.4173673 46.7668776,39.9996534 45.3438488,39.9996534 C45.289267,40.0029179 45.2358818,39.9830019 45.1972154,39.9449494 C45.1585491,39.9068971 45.1383117,39.8543593 45.1416288,39.8006443 Z" id="Shape" fill="#5A78FF"></path>
                </g>
                <g id="master-card" transform="translate(274.000000, 0.000000)" fill-rule="nonzero">
                    <path d="M9.09528246,39.7726923 L9.09528246,37.1244979 C9.12584616,36.6739139 8.96630224,36.231609 8.65739478,35.9105381 C8.34848733,35.5894672 7.92012338,35.4207151 7.48169784,35.4473773 C6.90404296,35.4086611 6.35162338,35.6960983 6.03975565,36.1976541 C5.75545883,35.7109773 5.23516315,35.4231272 4.6836132,35.4473773 C4.20338658,35.4225549 3.74625344,35.6609789 3.48198754,36.0741015 L3.48198754,35.5533175 L2.58930965,35.5533175 L2.58930965,39.7726923 L3.4905289,39.7726923 L3.4905289,37.4334459 C3.45107152,37.1411754 3.54085285,36.846081 3.73525835,36.6290659 C3.92966386,36.4120509 4.20829397,36.2958872 4.49475933,36.3124226 C5.08698789,36.3124226 5.38743722,36.7096539 5.38743722,37.4246175 L5.38743722,39.7726923 L6.28865647,39.7726923 L6.28865647,37.4334459 C6.25217771,37.141797 6.34298821,36.8484883 6.53672023,36.6322251 C6.73045224,36.4159619 7.00726765,36.2988895 7.2928869,36.3124226 C7.90224536,36.3124226 8.19406322,36.7096539 8.19406322,37.4246175 L8.19406322,39.7726923 L9.09528246,39.7726923 Z M22.4334302,35.5533175 L20.9743195,35.5533175 L20.9743195,34.273384 L20.0731002,34.273384 L20.0731002,35.5533175 L19.2405122,35.5533175 L19.2405122,36.3918778 L20.0731002,36.3918778 L20.0731002,38.316192 C20.0731002,39.2959618 20.4421808,39.8786518 21.4978739,39.8786518 C21.8922728,39.8798504 22.2790075,39.7666327 22.613657,39.5519837 L22.3562147,38.7663493 C22.1168368,38.9132239 21.8451386,38.9952376 21.566548,39.0047147 C21.1202091,39.0047147 20.9743195,38.7221635 20.9743195,38.2985795 L20.9743195,36.3918778 L22.4334302,36.3918778 L22.4334302,35.5533175 Z M30.046649,35.4473773 C29.6032942,35.4339312 29.1883192,35.6710307 28.9651987,36.0652731 L28.9651987,35.5533175 L28.0811051,35.5533175 L28.0811051,39.7726923 L28.97374,39.7726923 L28.97374,37.4069608 C28.97374,36.7096539 29.2655622,36.3212511 29.8492923,36.3212511 C30.040201,36.3185627 30.229756,36.354561 30.407141,36.4271911 L30.6817946,35.5621016 C30.4779403,35.4870823 30.2631594,35.4482871 30.046649,35.4473773 L30.046649,35.4473773 Z M18.536731,35.8887063 C18.0314571,35.5797312 17.4505096,35.4265459 16.8630138,35.4473773 C15.8244462,35.4473773 15.1550022,35.959333 15.1550022,36.7978933 C15.1550022,37.48646 15.6528038,37.9101765 16.5711486,38.0425575 L16.9917347,38.1043119 C17.4809522,38.1748503 17.7127274,38.3073195 17.7127274,38.5456408 C17.7127274,38.8722453 17.3865253,39.0576848 16.777171,39.0576848 C16.2869904,39.0721842 15.8063126,38.9167103 15.4124443,38.6162675 L14.9919011,39.3312752 C15.511835,39.7047312 16.1346387,39.8966032 16.7685867,39.8786325 C17.9530438,39.8786325 18.6396565,39.3047901 18.6396565,38.5015432 C18.6396565,37.7600504 18.0989765,37.3716474 17.2063414,37.2392223 L16.7857982,37.1774239 C16.3995062,37.1244979 16.0905584,37.0451311 16.0905584,36.7626682 C16.0905584,36.4536762 16.3822947,36.268281 16.8715979,36.268281 C17.3208621,36.2752581 17.7609939,36.3998133 18.1504821,36.6301989 L18.536731,35.8887063 Z M42.4491974,35.4473773 C42.0058427,35.4339312 41.5908678,35.6710307 41.3677472,36.0652731 L41.3677472,35.5533175 L40.4836965,35.5533175 L40.4836965,39.7726923 L41.3762886,39.7726923 L41.3762886,37.4069608 C41.3762886,36.7096539 41.6681536,36.3212511 42.2517594,36.3212511 C42.4427106,36.318552 42.6323098,36.3545503 42.8097366,36.4271911 L43.0843859,35.5621016 C42.8805171,35.4870819 42.6657219,35.4482869 42.4491974,35.4473773 L42.4491974,35.4473773 Z M30.947821,37.6628946 C30.9238435,38.2639864 31.1479371,38.8475151 31.5648229,39.2695367 C31.9817088,39.6915583 32.5525725,39.9127805 33.1365944,39.8786325 C33.6725035,39.9063175 34.1990958,39.7268141 34.6128307,39.3754168 L34.1837032,38.6339242 C33.8750902,38.8758626 33.4988299,39.0089773 33.1108029,39.0134989 C32.4164387,38.9701575 31.8748891,38.3783819 31.8748891,37.6629608 C31.8748891,36.9475395 32.4164387,36.355764 33.1108029,36.3124226 C33.4988376,36.3169395 33.8751037,36.4500719 34.1837032,36.6920415 L34.6128307,35.9505047 C34.1990661,35.5991711 33.6724875,35.4197039 33.1365944,35.4473773 C32.5526066,35.413216 31.9817686,35.6344029 31.5648862,36.0563792 C31.1480038,36.4783554 30.9238882,37.0618351 30.947821,37.6628946 Z M39.3077851,37.6628946 L39.3077851,35.5533175 L38.4151458,35.5533175 L38.4151458,36.0652731 C38.1059782,35.6555291 37.6229347,35.425237 37.1190933,35.4473773 C35.9702798,35.5053075 35.0677664,36.4801077 35.0677664,37.663005 C35.0677664,38.8459021 35.9702798,39.8207023 37.1190933,39.8786325 C37.6229482,39.9007423 38.1059904,39.6704178 38.4151458,39.2606483 L38.4151458,39.7726923 L39.3077851,39.7726923 L39.3077851,37.6628946 Z M35.986103,37.6628946 C36.0247392,36.9684861 36.5963998,36.4334431 37.2722531,36.4591285 C37.9481064,36.4848141 38.4798096,37.0617901 38.4685051,37.7572373 C38.4572006,38.4526845 37.9070421,39.0110605 37.2307317,39.0134989 C36.8871003,39.0182811 36.5571757,38.8750863 36.320775,38.618557 C36.0843744,38.3620277 35.9630318,38.0155314 35.986103,37.6628946 L35.986103,37.6628946 Z M25.2143893,35.4473773 C24.0575765,35.510009 23.1556085,36.501496 23.1717622,37.6927323 C23.187916,38.8839685 24.1164179,39.8492021 25.274479,39.8786325 C25.8868531,39.9007365 26.4857021,39.6901757 26.9567421,39.2871335 L26.5189832,38.6074834 C26.1800374,38.8868491 25.760259,39.0421331 25.3259418,39.0488122 C24.7127565,39.1018615 24.1693925,38.6446255 24.0985634,38.0159842 L27.145596,38.0159842 C27.1541803,37.901304 27.1627173,37.7865355 27.1627173,37.6628946 C27.1541803,36.347736 26.3645093,35.4473773 25.2143893,35.4473773 L25.2143893,35.4473773 Z M25.1971778,36.268281 C25.7585475,36.257048 26.222979,36.7149453 26.2357453,37.2922365 L24.1071477,37.2922365 C24.1397438,36.7030867 24.6237136,36.2484539 25.1971778,36.268281 L25.1971778,36.268281 Z M47.5904822,37.6628946 L47.5904822,33.85854 L46.6978043,33.85854 L46.6978043,36.0652731 C46.3886483,35.6555386 45.9056221,35.4252471 45.4017946,35.4473773 C44.2529474,35.5052611 43.3503845,36.4800752 43.3503845,37.663005 C43.3503845,38.8459346 44.2529474,39.8207487 45.4017946,39.8786325 C45.9056355,39.9007322 46.3886605,39.6704083 46.6978043,39.2606483 L46.6978043,39.7726923 L47.5904822,39.7726923 L47.5904822,37.6628946 Z M49.078479,39.1611845 C49.133915,39.1608183 49.1888485,39.1720211 49.239949,39.1941267 C49.2890856,39.2152035 49.333865,39.2457205 49.3718893,39.2840435 C49.4096163,39.3222739 49.4398003,39.3676456 49.4607726,39.4176605 C49.5041584,39.521529 49.5041584,39.6391607 49.4607726,39.7430291 C49.4396746,39.7928165 49.4095021,39.8379911 49.3718893,39.8761165 C49.3337619,39.9144312 49.2890155,39.9450903 49.239949,39.9665187 C49.1889389,39.9889832 49.133968,40.0003741 49.078479,39.9999781 C48.9115254,40.0017104 48.7597786,39.9005034 48.6932171,39.7430291 C48.6499579,39.6391354 48.6499579,39.5215543 48.6932171,39.4176605 C48.714137,39.3677098 48.7441813,39.3223509 48.7817208,39.2840435 C48.8197011,39.2454354 48.8646918,39.2148837 48.9141331,39.1941267 C48.9662211,39.1719527 49.0221066,39.1607551 49.078479,39.1611845 L49.078479,39.1611845 Z M49.078479,39.9074571 C49.1207755,39.9077994 49.162675,39.8990488 49.2014915,39.8817666 C49.2387558,39.8651127 49.2726386,39.8413927 49.3013694,39.8118461 C49.4247171,39.6837338 49.4247171,39.4773531 49.3013694,39.3492408 C49.2726925,39.3197839 49.2387872,39.2962579 49.2014915,39.2799383 C49.1626051,39.2629392 49.120731,39.2543592 49.078479,39.2547216 C49.0354544,39.2543997 48.9928043,39.2629715 48.9530672,39.2799383 C48.9151758,39.2959941 48.8807158,39.3195397 48.8516397,39.3492408 C48.7282315,39.4773275 48.7282315,39.6837594 48.8516397,39.8118461 C48.8807678,39.841637 48.9152048,39.8653765 48.9530672,39.8817666 C48.992736,39.8990165 49.0354109,39.9077584 49.078479,39.9074571 L49.078479,39.9074571 Z M49.102472,39.3842011 C49.1426181,39.3815163 49.1824133,39.3933525 49.2149688,39.4176605 C49.2412675,39.4399419 49.255872,39.4736263 49.2544134,39.5086367 C49.255332,39.5385458 49.2439027,39.5674584 49.2229522,39.5882242 C49.1980998,39.6109224 49.1666229,39.6244922 49.1334611,39.626804 L49.2574181,39.7737959 L49.1605016,39.7737959 L49.0455582,39.6278192 L49.0085602,39.6278192 L49.0085602,39.7737959 L48.9276106,39.7737959 L48.9276106,39.3842011 L49.102472,39.3842011 Z M49.0085602,39.4572557 L49.0085602,39.561077 L49.1015277,39.561077 C49.1193883,39.5619827 49.1371155,39.5574864 49.1525182,39.5481434 C49.165249,39.5394082 49.172468,39.5243407 49.1714466,39.5086367 C49.1722914,39.4932106 49.1650776,39.4784909 49.1525182,39.4700127 C49.1370808,39.460773 49.119367,39.4563413 49.1015277,39.4572557 L49.0085602,39.4572557 Z M44.268843,37.6628946 C44.3075117,36.9685226 44.8791699,36.4335359 45.5549883,36.4592543 C46.2308067,36.4849727 46.7624563,37.0619461 46.7511205,37.7573583 C46.7397845,38.4527703 46.1896283,39.0110922 45.5133515,39.0134989 C45.1697365,39.018261 44.8398354,38.8750555 44.6034581,38.6185269 C44.367081,38.3619983 44.2457592,38.0155135 44.268843,37.6628946 L44.268843,37.6628946 Z M14.1250189,37.6628946 L14.1250189,35.5533175 L13.232341,35.5533175 L13.232341,36.0652731 C12.9231735,35.6555291 12.44013,35.425237 11.9362884,35.4473773 C10.787475,35.5053075 9.88496166,36.4801077 9.88496166,37.663005 C9.88496166,38.8459021 10.787475,39.8207023 11.9362884,39.8786325 C12.4401433,39.9007423 12.9231856,39.6704178 13.232341,39.2606483 L13.232341,39.7726923 L14.1250189,39.7726923 L14.1250189,37.6628946 Z M10.8033798,37.6628946 C10.8420485,36.9685221 11.4137075,36.4335351 12.0895264,36.4592543 C12.7653454,36.4849735 13.2969947,37.0619485 13.2856572,37.7573611 C13.2743196,38.4527738 12.7241614,39.0110946 12.0478839,39.0134989 C11.7042697,39.0182599 11.3743697,38.8750538 11.1379934,38.6185253 C10.9016172,38.3619967 10.780296,38.0155127 10.8033798,37.6628946 L10.8033798,37.6628946 Z" id="Shape" fill="#FFFFFF"></path>
                    <g id="Group">
                        <rect id="Rectangle" fill="#FF5F00" x="18.2402306" y="3.39774878" width="13.52022" height="24.987041"></rect>
                        <path d="M19.098743,15.8912692 C19.0944162,11.0152898 21.2707214,6.40814807 25.0003878,3.39774878 C18.66526,-1.72339911 9.56707126,-0.978035136 4.10017339,5.10998706 C-1.36672446,11.1980092 -1.36672446,20.5845293 4.10017339,26.6725514 C9.56707126,32.7605736 18.66526,33.5059376 25.0003878,28.3847898 C21.2707466,25.3743696 19.0944477,20.7672413 19.098743,15.8912692 Z" id="Path" fill="#EB001B"></path>
                        <path d="M50,15.8912692 C50,21.9751703 46.6227558,27.5251632 41.3019917,30.1842074 C35.9812277,32.8432515 29.6512635,32.144532 25.0003878,28.3847898 C28.7265686,25.3715056 30.9019808,20.7662141 30.9019808,15.8912692 C30.9019808,11.0163244 28.7265686,6.41103293 25.0003878,3.39774878 C29.6512635,-0.361993563 35.9812277,-1.06071311 41.3019917,1.59833111 C46.6227558,4.25737533 50,9.80736824 50,15.8912692 L50,15.8912692 Z" id="Path" fill="#F79E1B"></path>
                        <path d="M48.5966781,26.0981263 L48.5966781,25.2878176 L48.8431688,25.2878176 L48.8431688,25.1227354 L48.2154168,25.1227354 L48.2154168,25.2878176 L48.462013,25.2878176 L48.462013,26.0981263 L48.5966781,26.0981263 Z M49.8154168,26.0981263 L49.8154168,25.1211272 L49.6229926,25.1211272 L49.4016627,25.793133 L49.1802802,25.1211272 L48.9877506,25.1211272 L48.9877506,26.0981263 L49.123629,26.0981263 L49.123629,25.3611642 L49.3311917,25.9965317 L49.4720811,25.9965317 L49.6796438,25.359556 L49.6796438,26.0981263 L49.8154168,26.0981263 Z" id="Shape" fill="#F79E1B"></path>
                    </g>
                </g>
                <g id="dankort">
                    <rect id="Rectangle" x="0" y="0" width="66" height="40"></rect>
                    <path d="M19.8572603,0.395342466 C9.1260274,0.395342466 0.395205479,9.12479452 0.395205479,19.8546575 C0.395205479,30.5856164 9.1260274,39.3158904 19.8572603,39.3158904 L46.0671233,39.3158904 C56.7969863,39.3158904 65.5265753,30.5856164 65.5265753,19.8546575 C65.5265753,9.12479452 56.7969863,0.395342466 46.0671233,0.395342466 L19.8572603,0.395342466 Z" id="WhiteBackground" fill="#FEFEFE" fill-rule="nonzero"></path>
                    <path d="M19.8572603,0.395342466 C9.1260274,0.395342466 0.395205479,9.12479452 0.395205479,19.8546575 C0.395205479,30.5856164 9.1260274,39.3158904 19.8572603,39.3158904 L46.0671233,39.3158904 C56.7969863,39.3158904 65.5265753,30.5856164 65.5265753,19.8546575 C65.5265753,9.12479452 56.7969863,0.395342466 46.0671233,0.395342466 L19.8572603,0.395342466 Z M46.0671233,39.7110959 L19.8572603,39.7110959 C8.90794521,39.7110959 0,30.8035616 0,19.8546575 C0,8.90684932 8.90794521,0 19.8572603,0 L46.0671233,0 C57.0150685,0 65.9217808,8.90684932 65.9217808,19.8546575 C65.9217808,30.8035616 57.0150685,39.7110959 46.0671233,39.7110959 L46.0671233,39.7110959 Z" id="BalckOutline" fill="#221E1F" fill-rule="nonzero"></path>
                    <path d="M25.9514658,9.3729726 L7.56310959,9.3729726 C10.5303699,5.89927397 14.9405068,3.69310959 19.8572192,3.69310959 L46.0670822,3.69310959 C50.9820137,3.69310959 55.3913288,5.89927397 58.3584521,9.37215068 L44.718863,9.37215068 L37.869,16.5128356 C37.3642055,11.029 32.4600959,9.3729726 25.9514658,9.3729726 Z M50.6488082,18.6664247 L59.0555205,10.2479315 C61.0485342,12.9351918 62.2296301,16.2598493 62.2296301,19.8547808 C62.2296301,23.2609452 61.1694932,26.423 59.3644247,29.0316301 L50.6488082,18.6664247 Z M15.2276849,16.2860959 L23.6894658,16.2860959 C25.5839863,16.2860959 27.1261781,17.1340411 26.5122055,19.3193836 C25.8917945,21.5288356 25.0530274,22.6765068 22.2808356,22.6765068 L12.9034384,22.6765068 L15.2276849,16.2860959 Z M44.7757808,29.9041233 L58.7170137,29.9041233 C55.7533151,33.6279589 51.184274,36.0190548 46.0671507,36.0190548 L19.8571507,36.0190548 C14.7382466,36.0190548 10.1682466,33.627 7.20468493,29.9030274 L23.5864658,29.9030274 C31.8063288,29.9030274 36.1911233,26.9909726 37.5312603,20.7486438 L44.7757808,29.9041233 Z" id="Dankort" fill="#E21F28" fill-rule="nonzero"></path>
                </g>
                <g id="visa" transform="translate(82.000000, 0.000000)" fill-rule="nonzero">
                    <rect id="Rectangle" fill="#FFFFFF" x="0" y="0" width="80" height="40" rx="1.73913043"></rect>
                    <g id="Group" transform="translate(4.048754, 9.037947)">
                        <path d="M12.7378735,2.57079027 C12.4486496,1.18856549 11.3122613,0.390275235 10.0500004,0.390275235 L0.137894039,0.390275235 L0,1.01183961 C2.03305314,1.4324875 4.34613728,2.10848077 5.7462921,2.83151133 C6.60335662,3.27500592 6.84873728,3.66138376 7.13018253,4.71098762 L7.19877602,4.96431712 L14.0086201,8.98264683 L12.7378735,2.57079027 Z" id="Path" fill="#F9C212"></path>
                        <polygon id="Path" fill="#2C68B2" points="21.2512461 0.39062353 15.1916808 14.9532609 14.0086374 8.98271144 7.19863736 4.96468947 11.7755939 21.787107 17.9325504 21.787107 27.3708112 0.39062353"></polygon>
                        <polygon id="Path" fill="#2C68B2" points="29.8695069 0.39062353 25.05342 21.787107 30.8786373 21.787107 35.695159 0.39062353"></polygon>
                        <path d="M60.2017795,14.2080881 L63.2708061,6.17142872 L65.0316069,14.2080881 L60.2017795,14.2080881 Z M67.3864126,0.392559904 L62.4151557,0.392559904 C61.2978605,0.392559904 60.3502808,1.01076448 59.933063,1.95823018 L51.1934096,21.7878138 L57.3095405,21.7878138 L58.525837,18.5892771 L66.0004008,18.5892771 L66.7075496,21.7878138 L72.08966,21.7878138 L67.3864126,0.392559904 Z M43.337975,6.31912586 C43.3556539,5.55241781 44.1250317,4.73598459 45.8080461,4.52700454 C46.6424821,4.42486643 48.9442517,4.34221514 51.5529238,5.48454968 L52.5740469,0.945449816 C51.1717709,0.463653429 49.3685413,0 47.1247573,0 C41.3657368,0 37.3144806,2.90623344 37.2826589,7.07239469 C37.2458872,10.1526662 40.1763123,11.8701997 42.3797883,12.8962849 C44.6511509,13.9445448 45.4134573,14.6178503 45.4021426,15.5545646 C45.3858782,16.9898744 43.58972,17.6255499 41.91802,17.6490685 C38.9875949,17.6927461 37.2890232,16.8971437 35.9348331,16.2970821 L34.8776454,20.9880453 C36.2410285,21.5807152 38.7535286,22.0967816 41.3537152,22.1236602 C47.4769178,22.1236602 51.4800878,19.2503528 51.4977666,14.8019677 C51.5232238,9.15547531 43.2835246,8.84234125 43.337975,6.31912586" id="Shape" fill="#2C68B2"></path>
                    </g>
                </g>
                <g id="visa-electron" transform="translate(178.000000, 0.000000)" fill-rule="nonzero">
                    <rect id="Rectangle" fill="#FFFFFF" x="0" y="0" width="80" height="40" rx="1.73913043"></rect>
                    <g id="Group" transform="translate(3.658736, 4.640382)">
                        <polygon id="Path" fill="#2C68B2" points="43.3173512 28.1002771 40.8943078 28.1002771 40.8943078 30.225552 43.6043078 30.225552 43.6043078 30.8646728 40.0786557 30.8646728 40.0786557 24.9679694 43.4656122 24.9679694 43.4656122 25.6070904 40.8943078 25.6070904 40.8943078 27.470387 43.3173512 27.470387"></polygon>
                        <polygon id="Path" fill="#2C68B2" points="44.8560469 30.8651123 45.6760469 30.8651123 45.6760469 24.6536838 44.8560469 24.6536838"></polygon>
                        <path d="M47.7423813,28.3340824 C47.8060248,27.8007864 48.159599,27.0941693 48.9940352,27.0941693 C49.9126213,27.0941693 50.1325448,27.8541162 50.1254734,28.3340824 L47.7423813,28.3340824 Z M50.91748,28.5274022 C50.91748,27.747457 50.5356195,26.5408747 49.0569712,26.5408747 C47.749453,26.5408747 46.9503747,27.5408046 46.9503747,28.820715 C46.9503747,30.0939592 47.7777387,30.9605651 49.1637509,30.9605651 C49.8779712,30.9605651 50.3793395,30.8139088 50.6629066,30.687251 L50.5144051,30.1406227 C50.2174026,30.2606142 49.8567565,30.3606072 49.269823,30.3606072 C48.4495304,30.3606072 47.749453,29.9273042 47.7353099,28.8873771 L50.8891942,28.8873771 C50.903337,28.8007165 50.91748,28.687391 50.91748,28.5274022 Z M55.3587286,30.716049 C55.1451699,30.812709 54.67138,30.9613651 54.0688891,30.9613651 C52.7139917,30.9613651 51.8321773,30.0947592 51.8321773,28.8001832 C51.8321773,27.4962744 52.7783426,26.5430078 54.2449696,26.5430078 C54.7265378,26.5430078 55.1536557,26.6563333 55.3764078,26.770992 L55.1918418,27.3569509 C54.9959613,27.260291 54.690473,27.154965 54.2449696,27.154965 C53.2146534,27.154965 52.6581274,27.8815808 52.6581274,28.7568528 C52.6581274,29.7361176 53.326383,30.3400754 54.2173904,30.3400754 C54.6812803,30.3400754 54.9874757,30.2347494 55.2194203,30.1387562 L55.3587286,30.716049 Z M57.6493965,25.6158062 L57.6493965,26.6304018 L58.8176066,26.6304018 L58.8176066,27.2163608 L57.6493965,27.2163608 L57.6493965,29.4995342 C57.6493965,30.0254974 57.8070904,30.3221432 58.26108,30.3221432 C58.4838322,30.3221432 58.6139474,30.3048112 58.7348699,30.2694803 L58.7723486,30.8561059 C58.6139474,30.9081022 58.363617,30.9607651 58.0475213,30.9607651 C57.6670752,30.9607651 57.3615869,30.8381072 57.1664134,30.6374546 C56.9436618,30.4008045 56.8510251,30.0254974 56.8510251,29.526199 L56.8510251,27.2163608 L56.1551909,27.2163608 L56.1551909,26.6304018 L56.8510251,26.6304018 L56.8510251,25.8431235 L57.6493965,25.6158062 Z M59.9586618,27.951576 C59.9586618,27.4529442 59.9487618,27.0243075 59.921183,26.6303352 L60.6361104,26.6303352 L60.6735896,27.4702763 L60.7004613,27.4702763 C60.9048269,26.9016494 61.4061957,26.5430078 61.9528218,26.5430078 C62.0369726,26.5430078 62.1020304,26.5516739 62.1769882,26.56034 L62.1769882,27.2862891 C62.0928373,27.2689571 62.0093939,27.2689571 61.8976643,27.2689571 C61.323459,27.2689571 60.91402,27.6715955 60.8022904,28.2488885 C60.7846117,28.3542144 60.7747117,28.484872 60.7747117,28.6081966 L60.7747117,30.8647053 L59.9586618,30.8647053 L59.9586618,27.951576 Z M64.9963909,30.3804725 C64.1973126,30.3804725 63.6386648,29.6805214 63.6386648,28.7539197 C63.6386648,27.9606419 64.0558826,27.1207008 65.0176051,27.1207008 C65.9800347,27.1207008 66.3618952,28.0206378 66.3618952,28.7405874 C66.3618952,29.6938539 65.7749618,30.3804725 64.9963909,30.3804725 M65.0324552,26.5407414 C63.802016,26.5407414 62.8042291,27.3740163 62.8042291,28.7805845 C62.8042291,30.1204907 63.7518086,30.9604318 64.9610334,30.9604318 C66.0366069,30.9604318 67.1956238,30.2804795 67.1956238,28.7139226 C67.1956238,27.4273459 66.3258309,26.5407414 65.0324552,26.5407414 M68.4472069,27.7764549 C68.4472069,27.3304861 68.4373066,26.9805106 68.4097278,26.630535 L69.1338482,26.630535 L69.179813,27.3304861 L69.198199,27.3304861 C69.4216578,26.9365138 69.9407051,26.5432078 70.6832117,26.5432078 C71.3047957,26.5432078 72.2700539,26.8931834 72.2700539,28.3450818 L72.2700539,30.8642386 L71.4540038,30.8642386 L71.4540038,28.4237429 C71.4540038,27.7417906 71.1845803,27.1724971 70.4144952,27.1724971 C69.8855478,27.1724971 69.4676226,27.5318053 69.3191213,27.9597754 C69.2823496,28.0564352 69.2632565,28.1877594 69.2632565,28.3190835 L69.2632565,30.8642386 L68.4472069,30.8642386 L68.4472069,27.7764549 Z" id="Shape" fill="#2C68B2"></path>
                        <path d="M12.7378735,2.55035474 C12.4493568,1.17911743 11.3129684,0.387172886 10.0507076,0.387172886 L0.13789404,0.387172886 L0,1.00379637 C2.03305315,1.42110048 4.34613726,2.09172019 5.74699926,2.8090033 C6.60335661,3.24897248 6.84873726,3.63227898 7.13018258,4.67353939 L7.19948314,4.92485514 L14.0086201,8.91124261 L12.7378735,2.55035474 Z" id="Path" fill="#F9C212"></path>
                        <polygon id="Path" fill="#2C68B2" points="21.2512643 0.387310165 15.1916991 14.8343431 14.0086556 8.91170578 7.19952518 4.92533214 11.7756121 21.6141234 17.9334382 21.6141234 27.371699 0.387310165"></polygon>
                        <polygon id="Path" fill="#2C68B2" points="29.8703947 0.387310165 25.0534382 21.6141234 30.8795251 21.6141234 35.6951773 0.387310165"></polygon>
                        <path d="M60.2024869,14.0951463 L63.271513,6.12237126 L65.0323139,14.0951463 L60.2024869,14.0951463 Z M67.38712,0.389439395 L62.415863,0.389439395 C61.2985678,0.389439395 60.3509882,1.00272978 59.9337704,1.94266395 L51.1934096,21.6146197 L57.3102478,21.6146197 L58.5265438,18.4415086 L66.0004008,18.4415086 L66.7075496,21.6146197 L72.08966,21.6146197 L67.38712,0.389439395 Z M43.3379043,6.26889434 C43.355583,5.50828093 44.1249613,4.69833763 45.8079757,4.49101883 C46.6424112,4.38969258 48.9441808,4.30769834 51.5535603,5.44095232 L52.5739765,0.937934318 C51.1724074,0.459967787 49.3684704,0 47.1246869,0 C41.3663731,0 37.3144099,2.88313142 37.2825882,7.01617534 C37.2458165,10.0719613 40.1762416,11.775842 42.3804248,12.7937707 C44.65108,13.8336979 45.4133866,14.5016511 45.4020722,15.4309194 C45.3858078,16.8548197 43.5896496,17.4854422 41.9179493,17.5087739 C38.9875242,17.5521042 37.2889525,16.7628261 35.9354694,16.1675344 L34.8782819,20.8212086 C36.241665,21.4091674 38.7534579,21.9211315 41.3543517,21.9477963 C47.4768469,21.9477963 51.480017,19.0973293 51.4976957,14.684305 C51.523153,9.08269728 43.2834539,8.77205237 43.3379043,6.26889434" id="Shape" fill="#2C68B2"></path>
                    </g>
                </g>
                <g id="apple-pay" transform="translate(340.000000, 0.000000)" fill-rule="nonzero">
                    <path d="M56.4476795,0 L5.55238637,0 C5.34041457,0 5.12806818,0 4.91647469,0.00124569316 C4.73761154,0.00252913459 4.55916416,0.0045297933 4.38071679,0.00943706938 C3.9915337,0.0200443354 3.59901689,0.0431840294 3.21470326,0.112791853 C2.82424662,0.183607622 2.46090919,0.29911735 2.10644916,0.480988552 C1.75798234,0.659575653 1.43895709,0.893161994 1.16248727,1.17189528 C0.885897581,1.45062856 0.654110771,1.77160216 0.476936947,2.12315187 C0.29642941,2.48036382 0.181734644,2.84663536 0.111951381,3.24042539 C0.0425089819,3.62783595 0.0193939785,4.02332466 0.00890588754,4.41511403 C0.00411133167,4.59494683 0.00205491668,4.77477962 0.000889989435,4.95457467 C0,5.16826766 0,5.38180966 0,5.59588016 L0,34.404535 C0,34.6186056 0,34.8317739 0.000889989435,35.0458821 C0.00205491668,35.2256771 0.00411133167,35.4055099 0.00890588754,35.5853427 C0.0193939785,35.9767886 0.0425089819,36.3722773 0.111951381,36.7595746 C0.181734644,37.1535157 0.29642941,37.5196362 0.476936947,37.8768859 C0.654110771,38.2284355 0.885897581,38.5498245 1.16248727,38.8281424 C1.43895709,39.1073288 1.75798234,39.3408773 2.10644916,39.5190115 C2.46090919,39.7013734 2.82424662,39.8169208 3.21470326,39.8876989 C3.59901689,39.9568538 3.9915337,39.9804086 4.38071679,39.9910158 C4.55916416,39.9950928 4.73761154,39.9975086 4.91647469,39.998339 C5.12806818,40 5.34041457,40 5.55238637,40 L56.4476795,40 C56.6592767,40 56.871627,40 57.0831791,39.998339 C57.2616303,39.9975086 57.4400814,39.9950928 57.6193455,39.9910158 C58.0077044,39.9804086 58.4001463,39.9568538 58.7854002,39.8876989 C59.1753324,39.8169208 59.5387447,39.7013734 59.8932421,39.5190115 C60.2420836,39.3408773 60.5601725,39.1073288 60.8372116,38.8281424 C61.113348,38.5498245 61.3451311,38.2284355 61.5227582,37.8768859 C61.703674,37.5196362 61.8182564,37.1535157 61.8877026,36.7595746 C61.9571861,36.3722773 61.9797356,35.9767886 61.9902611,35.5853427 C61.9951305,35.4055099 61.9975316,35.2256771 61.9983557,35.0458821 C62,34.8317739 62,34.6186093 62,34.404535 L62,5.59588016 C62,5.38180966 62,5.16826766 61.9983557,4.95457467 C61.9975316,4.77477962 61.9951305,4.59494683 61.9902611,4.41511403 C61.9797318,4.02332466 61.9571861,3.62783595 61.8877026,3.24042539 C61.81826,2.84663536 61.703674,2.48036382 61.5227582,2.12315187 C61.3451311,1.77160216 61.113348,1.45062856 60.8372116,1.17189528 C60.5601725,0.893161994 60.2420836,0.659575653 59.8932421,0.480988552 C59.5387447,0.29911735 59.1753324,0.183607622 58.7854002,0.112791853 C58.4001501,0.0431840294 58.0077082,0.0200443354 57.6193455,0.00943706938 C57.4400814,0.0045297933 57.2616303,0.00252913459 57.0831791,0.00124569316 C56.871627,0 56.6592767,0 56.4476795,0 L56.4476795,0 Z" id="XMLID_4_" fill="#000000"></path>
                    <path d="M56.4476795,1.33326916 L57.0737774,1.33447711 C57.2433848,1.33568505 57.412996,1.33753472 57.5835436,1.3422155 C57.8802105,1.35029364 58.2272464,1.36648764 58.550729,1.42492198 C58.8319223,1.47595765 59.0677507,1.55356811 59.2940726,1.66968181 C59.5175064,1.78409683 59.7222152,1.93403299 59.9009547,2.11390354 C60.0803759,2.29498203 60.2293481,2.5016161 60.3443799,2.72927595 C60.4589586,2.95557688 60.5354842,3.19210758 60.585827,3.47756006 C60.6436614,3.80000586 60.6596556,4.15068734 60.6677876,4.45150338 C60.6723537,4.62129512 60.6746012,4.79108688 60.6754291,4.9649177 C60.6770023,5.17513786 60.6770023,5.38524477 60.6770023,5.59588016 L60.6770023,34.404535 C60.6770023,34.6151704 60.6770023,34.8248998 60.6753916,35.0396122 C60.6746012,35.2093661 60.6723575,35.3791579 60.6677502,35.5492515 C60.6596556,35.8496146 60.6436651,36.2001074 60.5851191,36.5263658 C60.5354842,36.8078925 60.4589997,37.0444608 60.3437844,37.2718942 C60.2290859,37.4989878 60.0803422,37.7053955 59.9017038,37.8853414 C59.7219491,38.0665333 59.5179146,38.2160165 59.2918251,38.3314883 C59.0671926,38.4470358 58.8317687,38.5245746 58.5533474,38.5750781 C58.2233133,38.6343429 57.8617365,38.6506501 57.5894205,38.6580866 C57.4180902,38.6619746 57.2475837,38.6643112 57.0729233,38.6651454 C56.8647685,38.6667309 56.6558719,38.6667309 56.4476833,38.6667309 L5.55238637,38.6667309 C5.54961453,38.6667309 5.54691759,38.6667309 5.54410828,38.6667309 C5.33831694,38.6667309 5.13211359,38.6667309 4.92257651,38.6651077 C4.751733,38.6643112 4.58126407,38.6620123 4.4164512,38.6582374 C4.13791747,38.6506501 3.77611579,38.6343806 3.44877498,38.5754555 C3.16796009,38.5245709 2.93253616,38.4470358 2.70494459,38.3299784 C2.48099014,38.2155256 2.2771054,38.0661934 2.09727208,37.8846621 C1.91882471,37.7051312 1.7705306,37.4993653 1.65587329,37.271932 C1.54110361,37.0447251 1.4643158,36.8074394 1.41382688,36.5225531 C1.3554644,36.1969365 1.3394326,35.8478405 1.33142045,35.5495158 C1.32684689,35.3787048 1.32493656,35.2079317 1.3238503,35.0381398 L1.32302623,34.5368805 L1.32302623,34.404535 L1.32302623,5.59588016 L1.32302623,5.46353469 L1.32381284,4.96333227 C1.32493656,4.79252131 1.32684689,4.6217481 1.33142045,4.45108814 C1.3394326,4.15246152 1.3554644,3.80321445 1.41431008,3.47487994 C1.46435326,3.19256058 1.54110361,2.9552749 1.65647261,2.72693557 C1.77023094,2.50123861 1.91878725,2.29520851 2.09817482,2.11446976 C2.27684694,1.93433498 2.48139842,1.78458757 2.70678001,1.66907784 C2.93193685,1.55353036 3.16780652,1.47595765 3.44862516,1.42503522 C3.77218276,1.3664499 4.11945094,1.35029364 4.41686324,1.34217776 C4.58639574,1.33753472 4.75592824,1.33568505 4.92418718,1.33451485 L5.55238637,1.33326916 L56.4476795,1.33326916" id="XMLID_3_" fill="#FFFFFF"></path>
                    <g id="Group" transform="translate(8.403738, 10.967939)" fill="#000000">
                        <g id="Path">
                            <path d="M8.52186622,2.48574672 C9.05272843,1.81659811 9.41296813,0.918128704 9.31795728,0 C8.54084967,0.038941123 7.59253895,0.51666445 7.04351361,1.18633777 C6.55054712,1.7598096 6.1142313,2.69589893 6.22797838,3.57553949 C7.1003216,3.65179478 7.9718595,3.13611934 8.52186622,2.48574672"></path>
                            <path d="M9.30804602,3.74729038 C8.04119327,3.6712427 6.96405883,4.47187234 6.35907203,4.47187234 C5.75375186,4.47187234 4.82732005,3.78561243 3.82530656,3.80410909 C2.52112369,3.82341355 1.31099277,4.5665337 0.649175502,5.74844358 C-0.712070082,8.1128447 0.289943403,11.6200787 1.61368283,13.5457504 C2.2565204,14.4984415 3.03124945,15.5474246 4.05207408,15.5097442 C5.01658139,15.4716034 5.39462839,14.8803597 6.5670284,14.8803597 C7.73856689,14.8803597 8.07910771,15.5097442 9.10009714,15.4906776 C10.1588887,15.4715996 10.8208221,14.5375109 11.4636521,13.5838913 C12.2011073,12.4978734 12.5029957,11.4492338 12.5219829,11.3916676 C12.502992,11.372601 10.4803337,10.5906341 10.4615787,8.24588474 C10.4424829,6.28259304 12.0495918,5.34874218 12.1252297,5.29082877 C11.2176802,3.93813813 9.79965281,3.78561243 9.30804602,3.74729038"></path>
                        </g>
                        <g transform="translate(15.018501, 1.090294)">
                            <path d="M5.32031638,0 C8.07379986,0 9.99115026,1.9127392 9.99115026,4.69753909 C9.99115026,7.49228189 8.03434591,9.41495643 5.25127104,9.41495643 L2.2026377,9.41495643 L2.2026377,14.3007839 L0,14.3007839 L0,0 L5.32031638,0 L5.32031638,0 Z M2.20263396,7.55173165 L4.73000916,7.55173165 C6.64773788,7.55173165 7.73919231,6.51125323 7.73919231,4.70747822 C7.73919231,2.90389571 6.64773788,1.87316768 4.73987172,1.87316768 L2.20263396,1.87316768 L2.20263396,7.55173165 L2.20263396,7.55173165 Z" id="Shape"></path>
                            <path d="M10.5666543,11.3376348 C10.5666543,9.51397771 11.9532623,8.3941713 14.4119742,8.25538974 L17.2439873,8.08697958 L17.2439873,7.28430398 C17.2439873,6.12473352 16.4670333,5.43101832 15.1691994,5.43101832 C13.9396543,5.43101832 13.1725628,6.0255235 12.9859123,6.95723026 L10.9797877,6.95723026 C11.097775,5.07412346 12.6907586,3.68669307 15.247729,3.68669307 C17.7553791,3.68669307 19.3582254,5.02461282 19.3582254,7.1157013 L19.3582254,14.3007877 L17.3225168,14.3007877 L17.3225168,12.5862836 L17.2735787,12.5862836 C16.6737911,13.7458541 15.3657163,14.479137 14.0086997,14.479137 C11.98285,14.479137 10.5666543,13.2106061 10.5666543,11.3376348 Z M17.2439873,10.3961776 L17.2439873,9.57362378 L14.6968795,9.73209482 C13.4282587,9.82136571 12.7104875,10.3862385 12.7104875,11.278185 C12.7104875,12.189821 13.4578501,12.7845149 14.5986248,12.7845149 C16.0834876,12.7845149 17.2439873,11.7537869 17.2439873,10.3961776 Z" id="Shape"></path>
                            <path d="M21.2801269,18.1361976 L21.2801269,16.4018154 C21.437186,16.4413869 21.7911404,16.4413869 21.9683066,16.4413869 C22.95164,16.4413869 23.4827608,16.0252309 23.8071237,14.9549352 C23.8071237,14.9350532 23.9941527,14.3206697 23.9941527,14.3107306 L20.2573357,3.87498525 L22.5582281,3.87498525 L25.1743775,12.3584237 L25.2134531,12.3584237 L27.8296063,3.87498525 L30.071698,3.87498525 L26.1967866,14.8457822 C25.3120936,17.3730936 24.2893025,18.1857083 22.1454731,18.1857083 C21.9683104,18.1857083 21.4371897,18.1658262 21.2801269,18.1361976 Z" id="Path"></path>
                        </g>
                    </g>
                </g>
            </g>
        </g>
    </g>
</svg>